<svg xmlns="http://www.w3.org/2000/svg" xmlns:xlink="http://www.w3.org/1999/xlink" viewBox="0 0 448.1 543.56"><defs><style>.cls-1{isolation:isolate;}.cls-2{fill:url(#linear-gradient);}.cls-3,.cls-5,.cls-8{mix-blend-mode:multiply;}.cls-3{fill:url(#linear-gradient-2);}.cls-4{fill:url(#linear-gradient-3);}.cls-5{fill:url(#linear-gradient-4);}.cls-6{fill:url(#linear-gradient-5);}.cls-7{fill:#2b2e2e;}.cls-8{fill:url(#radial-gradient);}.cls-9{fill:url(#linear-gradient-6);}.cls-10{font-size:34.71px;font-family:NotoSans-Italic, Noto Sans;font-style:italic;letter-spacing:0.06em;}.cls-10,.cls-13{fill:#fff;}.cls-11{letter-spacing:0.07em;}.cls-12{letter-spacing:0.07em;}.cls-14{fill:url(#Degradado_sin_nombre_75);}</style><linearGradient id="linear-gradient" x1="1898.94" y1="737.13" x2="1718.98" y2="737.13" gradientTransform="translate(210.58 -1523.49) rotate(65.25)" gradientUnits="userSpaceOnUse"><stop offset="0" stop-color="#ddc380"/><stop offset="0.05" stop-color="#d3b675"/><stop offset="0.2" stop-color="#bc985e"/><stop offset="0.34" stop-color="#ac834d"/><stop offset="0.47" stop-color="#a27642"/><stop offset="0.6" stop-color="#9f723f"/><stop offset="0.74" stop-color="#ae8349"/><stop offset="0.96" stop-color="#d0a960"/></linearGradient><linearGradient id="linear-gradient-2" x1="316.05" y1="463.35" x2="282.94" y2="397.14" gradientUnits="userSpaceOnUse"><stop offset="0" stop-color="#fff" stop-opacity="0"/><stop offset="0.02" stop-color="#fbf9f7" stop-opacity="0.04"/><stop offset="0.19" stop-color="#dfd0bf" stop-opacity="0.33"/><stop offset="0.36" stop-color="#c8ae91" stop-opacity="0.57"/><stop offset="0.53" stop-color="#b6946d" stop-opacity="0.76"/><stop offset="0.69" stop-color="#a98154" stop-opacity="0.89"/><stop offset="0.85" stop-color="#a27644" stop-opacity="0.97"/><stop offset="1" stop-color="#9f723f"/></linearGradient><linearGradient id="linear-gradient-3" x1="2021.18" y1="471.91" x2="1841.22" y2="471.91" gradientTransform="matrix(-0.42, 0.91, 0.91, 0.42, 529.55, -1523.49)" xlink:href="#linear-gradient"/><linearGradient id="linear-gradient-4" x1="1409.99" y1="764.35" x2="1376.88" y2="698.14" gradientTransform="matrix(-1, 0, 0, 1, 1542.04, -301)" xlink:href="#linear-gradient-2"/><linearGradient id="linear-gradient-5" x1="778.06" y1="365.81" x2="1227.14" y2="365.81" gradientTransform="translate(618.58 -476.72) rotate(48.34)" gradientUnits="userSpaceOnUse"><stop offset="0.03" stop-color="#a67a44"/><stop offset="0.11" stop-color="#b48b4e"/><stop offset="0.27" stop-color="#dab868"/><stop offset="0.31" stop-color="#e4c46f"/><stop offset="0.5" stop-color="#c29546"/><stop offset="0.56" stop-color="#c99f51"/><stop offset="0.66" stop-color="#dbba6e"/><stop offset="0.79" stop-color="#f7e49a"/><stop offset="0.8" stop-color="#f1dc93"/><stop offset="0.84" stop-color="#d3b675"/><stop offset="0.88" stop-color="#bc985d"/><stop offset="0.92" stop-color="#ac834d"/><stop offset="0.96" stop-color="#a27642"/><stop offset="1" stop-color="#9f723f"/></linearGradient><radialGradient id="radial-gradient" cx="1624.96" cy="-162.6" r="38.25" gradientTransform="matrix(3.51, 3.49, -3.51, 3.49, -6043.09, -4883.33)" gradientUnits="userSpaceOnUse"><stop offset="0.8" stop-color="#fff" stop-opacity="0"/><stop offset="1" stop-color="#413215"/></radialGradient><linearGradient id="linear-gradient-6" x1="424.5" y1="174.06" x2="-27.82" y2="281.44" gradientUnits="userSpaceOnUse"><stop offset="0" stop-color="#9f723f"/><stop offset="0.04" stop-color="#a27642"/><stop offset="0.08" stop-color="#ac834d"/><stop offset="0.12" stop-color="#bc985d"/><stop offset="0.16" stop-color="#d3b675"/><stop offset="0.2" stop-color="#f1dc93"/><stop offset="0.21" stop-color="#f7e49a"/><stop offset="0.34" stop-color="#dbba6e"/><stop offset="0.44" stop-color="#c99f51"/><stop offset="0.5" stop-color="#c29546"/><stop offset="0.69" stop-color="#e4c46f"/><stop offset="0.73" stop-color="#dab868"/><stop offset="0.89" stop-color="#b48b4e"/><stop offset="0.97" stop-color="#a67a44"/></linearGradient><linearGradient id="Degradado_sin_nombre_75" x1="1024.77" y1="263.67" x2="1024.77" y2="497.78" gradientUnits="userSpaceOnUse"><stop offset="0" stop-color="#fff"/><stop offset="0.05" stop-color="#fff" stop-opacity="0.92"/><stop offset="0.2" stop-color="#fff" stop-opacity="0.68"/><stop offset="0.35" stop-color="#fff" stop-opacity="0.47"/><stop offset="0.5" stop-color="#fff" stop-opacity="0.3"/><stop offset="0.64" stop-color="#fff" stop-opacity="0.17"/><stop offset="0.77" stop-color="#fff" stop-opacity="0.08"/><stop offset="0.9" stop-color="#fff" stop-opacity="0.02"/><stop offset="1" stop-color="#fff" stop-opacity="0"/></linearGradient></defs><g class="cls-1"><g id="Layer_1" data-name="Layer 1"><polygon class="cls-2" points="273 543.56 193.64 372.13 323.73 312.42 403.09 483.85 327.28 488.82 273 543.56"/><polygon class="cls-3" points="273 543.56 193.64 372.13 323.73 312.42 403.09 483.85 327.28 488.82 273 543.56"/><polygon class="cls-4" points="175.1 543.56 254.46 372.13 124.37 312.42 45.01 483.85 120.82 488.82 175.1 543.56"/><polygon class="cls-5" points="175.1 543.56 254.46 372.13 124.37 312.42 45.01 483.85 120.82 488.82 175.1 543.56"/><path class="cls-6" d="M1200.62,403.82h0a50,50,0,0,1,30.81,64.91h0a49.83,49.83,0,0,0,7.68,48.67h0a49.86,49.86,0,0,1-9.33,71.19h0a49.9,49.9,0,0,0-20,45.08h0a50.07,50.07,0,0,1-46.5,54.86h0A50.22,50.22,0,0,0,1122,715.71h0a50.33,50.33,0,0,1-68.91,21.12h0a50.4,50.4,0,0,0-49.47.64h0a50.33,50.33,0,0,1-69.44-19.32h0a50.25,50.25,0,0,0-42-26.1h0a50.07,50.07,0,0,1-47.92-53.63h0a49.94,49.94,0,0,0-21.15-44.55h0A49.88,49.88,0,0,1,812,523h0a49.82,49.82,0,0,0,6.4-48.85h0a49.94,49.94,0,0,1,29.1-65.69h0a50.06,50.06,0,0,0,31.91-37.65h0a50.21,50.21,0,0,1,60.14-39.6h0a50.35,50.35,0,0,0,47.29-14.5h0a50.36,50.36,0,0,1,72.09-.93h0A50.39,50.39,0,0,0,1106.58,329h0a50.22,50.22,0,0,1,61.16,38h0A50.08,50.08,0,0,0,1200.62,403.82Z" transform="translate(-801.9 -301)"/><ellipse class="cls-7" cx="224.05" cy="221.65" rx="183.38" ry="182.6"/><ellipse class="cls-8" cx="224.05" cy="221.65" rx="183.38" ry="182.6"/><ellipse class="cls-9" cx="224.05" cy="221.65" rx="173.01" ry="172.27"/><ellipse cx="224.05" cy="221.65" rx="150.16" ry="149.52"/><text class="cls-10" transform="translate(95.1 272.74) scale(1.15 1)">P<tspan class="cls-11" x="21.6" y="0">ARTICI</tspan><tspan x="136.89" y="0">P</tspan><tspan class="cls-12" x="158.49" y="0">ANT</tspan></text><polygon class="cls-13" points="222.94 184 200.61 197.95 207.04 172.49 186.81 155.66 213.12 153.88 222.94 129.52 232.77 153.88 259.07 155.66 238.84 172.49 245.27 197.95 222.94 184"/><polygon class="cls-13" points="291.63 198.63 278.33 206.94 282.16 191.78 270.11 181.75 285.77 180.69 291.63 166.18 297.48 180.69 313.15 181.75 301.1 191.78 304.93 206.94 291.63 198.63"/><polygon class="cls-13" points="154.26 198.63 140.96 206.94 144.79 191.78 132.74 181.75 148.41 180.69 154.26 166.18 160.11 180.69 175.78 181.75 163.73 191.78 167.56 206.94 154.26 198.63"/><path class="cls-14" d="M1024.77,691c-86.69,0-157.22-71.33-157.22-159s70.53-159,157.22-159S1182,444.33,1182,532,1111.47,691,1024.77,691Z" transform="translate(-801.9 -301)"/></g></g></svg>